<svg width="183" height="54" xmlns="http://www.w3.org/2000/svg"><g fill="none" fill-rule="evenodd"><path d="M26.87 54c5.686 0 10.96-1.775 15.301-4.803 1.477-1.029 10.329 1.299 11.57 0 1.57-1.645-4.546-6.991-3.427-8.994A26.979 26.979 0 0053.74 27c0-14.912-12.03-27-26.87-27C12.03 0 0 12.088 0 27s12.03 27 26.87 27z" fill="#F78C2C"/><path d="M16.72 37v-8.933h9.213V37h5.721V14.767h-5.72v8.3H16.72v-8.3H11V37h5.72zm21.353-18.133c1.63 0 2.927-1.3 2.927-2.934A2.913 2.913 0 0038.073 13c-1.63 0-2.927 1.3-2.927 2.933a2.913 2.913 0 002.927 2.934zM40.634 37V20.9h-5.122V37h5.122z" fill="#FFF" fill-rule="nonzero"/><path d="M75.824 37.946V35.05H64.309v-6.844h11.283V25.31H64.31v-6.416h11.515V16H61v21.946h14.824zm7.048 0V26.595c.794-1.152 2.35-2.304 3.905-2.304 2.018 0 2.812 1.218 2.812 3.06v10.595h2.978V26.562c.761-1.152 2.35-2.27 3.97-2.27 1.953 0 2.78 1.217 2.78 3.06v10.594h2.978V26.463c0-3.192-1.588-4.804-4.533-4.804-2.35 0-4.467 1.48-5.393 2.961-.497-1.71-1.92-2.96-4.335-2.96-2.383 0-4.5 1.644-5.162 2.631v-2.237h-2.978v15.892h2.978zM110.005 44v-8.357c1.29 1.744 3.144 2.698 5.228 2.698 4.17 0 7.114-3.159 7.114-8.357 0-5.199-2.945-8.325-7.114-8.325-2.15 0-4.07 1.086-5.228 2.665v-2.27h-2.978V44h2.978zm4.434-8.291c-1.82 0-3.64-1.086-4.434-2.336v-6.746c.794-1.283 2.614-2.336 4.434-2.336 2.978 0 4.798 2.402 4.798 5.693 0 3.323-1.82 5.725-4.798 5.725zm14.659 2.237V16h-2.978v21.946h2.978zm12.011.395c2.581 0 4.831-.823 6.42-2.37l-1.39-1.94c-1.192 1.217-3.045 1.875-4.732 1.875-3.21 0-5.195-2.237-5.427-4.935h12.64v-.724c0-4.87-2.978-8.588-7.776-8.588-4.665 0-8.007 3.718-8.007 8.325 0 5 3.507 8.357 8.272 8.357zm4.6-9.509h-9.762c.166-2.172 1.688-4.738 4.897-4.738 3.375 0 4.798 2.632 4.864 4.738zm13.731 9.509c4.997 0 8.074-3.751 8.074-8.357 0-4.574-3.077-8.325-8.074-8.325-4.963 0-8.073 3.751-8.073 8.325 0 4.606 3.11 8.357 8.073 8.357zm0-2.632c-3.176 0-4.963-2.698-4.963-5.725 0-2.995 1.787-5.693 4.963-5.693 3.21 0 4.964 2.698 4.964 5.693 0 3.027-1.754 5.725-4.964 5.725zm17.108 2.632c4.202 0 6.452-2.139 6.452-4.87 0-3.299-2.7-4.235-5.27-4.846l-.275-.064a99.095 99.095 0 00-.543-.124c-1.986-.46-3.706-.921-3.706-2.303 0-1.283 1.257-2.073 3.275-2.073 2.019 0 3.806.823 4.732 1.941l1.324-2.073c-1.357-1.283-3.342-2.27-6.089-2.27-3.904 0-6.088 2.172-6.088 4.705 0 3.422 3.176 4.146 5.89 4.771 2.051.46 3.871.987 3.871 2.567 0 1.349-1.191 2.27-3.441 2.27-2.15 0-4.269-1.086-5.36-2.27l-1.423 2.171c1.621 1.645 3.97 2.468 6.65 2.468z" fill="#F78C2C" fill-rule="nonzero"/></g></svg>